<svg width="24" height="24" viewBox="0 0 40 40" fill="none" xmlns="http://www.w3.org/2000/svg" aria-label="Pinterest" role="img" data-testid="pinterest-preview-icon"><path d="M5 19.9999C5 26.1421 8.69354 31.4187 13.9788 33.7386C13.9367 32.6912 13.9713 31.4338 14.2399 30.2942C14.5283 29.0765 16.17 22.1207 16.17 22.1207C16.17 22.1207 15.6908 21.163 15.6908 19.7475C15.6908 17.5246 16.9792 15.8645 18.5838 15.8645C19.9482 15.8645 20.6074 16.8892 20.6074 18.1164C20.6074 19.4879 19.7326 21.5395 19.2827 23.4396C18.9068 25.0308 20.0805 26.3286 21.6502 26.3286C24.4923 26.3286 26.4064 22.6784 26.4064 18.3536C26.4064 15.0661 24.1922 12.6054 20.1647 12.6054C15.6146 12.6054 12.7799 15.9986 12.7799 19.7889C12.7799 21.0957 13.1652 22.0173 13.7687 22.7309C14.0462 23.0587 14.0848 23.1905 13.9844 23.5669C13.9124 23.8429 13.7472 24.5073 13.6787 24.7706C13.5789 25.1506 13.271 25.2864 12.9277 25.1461C10.8319 24.2905 9.85581 21.9955 9.85581 19.4155C9.85581 15.1546 13.4495 10.0453 20.5764 10.0453C26.3034 10.0453 30.0728 14.1894 30.0728 18.6379C30.0728 24.5221 26.8013 28.9181 21.979 28.9181C20.3596 28.9181 18.8363 28.0427 18.3145 27.0484C18.3145 27.0484 17.4436 30.5044 17.2592 31.1718C16.9411 32.3283 16.3186 33.4842 15.7494 34.3851C17.0985 34.7833 18.5236 35.0002 20.0007 35.0002C28.284 35.0002 35.0003 28.2844 35.0003 19.9999C35.0003 11.7158 28.284 5 20.0007 5C11.7165 5 5 11.7158 5 19.9999Z" fill="currentColor"></path></svg>