<?xml version="1.0" encoding="utf-8"?>
<!-- Generator: Adobe Illustrator 27.1.0, SVG Export Plug-In . SVG Version: 6.00 Build 0)  -->
<svg version="1.1" id="Capa_1" xmlns="http://www.w3.org/2000/svg" xmlns:xlink="http://www.w3.org/1999/xlink" x="0px" y="0px"
	 viewBox="0 0 500 500" style="enable-background:new 0 0 500 500;" xml:space="preserve">
<style type="text/css">
	.st0{opacity:0.65;}
	.st1{fill:#FFFFFF;}
</style>
<circle class="st0" cx="238.4" cy="249.9" r="152.2"/>
<path class="st1" d="M217.5,188.2c1.9,0,3.9,0,5.8,0c0.2,0.1,0.4,0.2,0.5,0.2c3.2,0.5,6.1,1.6,8.7,3.4
	c19.8,13.4,39.6,26.7,59.3,40.1c6.2,4.2,9.5,10.3,9.5,17.8c0,7.4-3.1,13.5-9.3,17.8c-19.8,13.5-39.7,26.9-59.5,40.3
	c-5,3.4-10.5,4.5-16.4,3.3c-10.7-2.2-17.6-10.9-17.6-21.8c0-25.9,0-51.7,0-77.6c0-1.2,0-2.4,0.2-3.6c1-9.3,6-15.4,14.6-18.6
	C214.7,188.9,216.1,188.6,217.5,188.2z"/>
</svg>
