<svg width="24" height="24" viewBox="0 0 40 40" fill="none" xmlns="http://www.w3.org/2000/svg" aria-label="Spotify" role="img" data-testid="spotify-preview-icon"><path d="M 20 5 C 11.8 5 5 11.8 5 20 C 5 28.3 11.8 35 20 35 C 28.3 35 35 28.3 35 20 C 35 11.8 28.4 5 20 5 Z M 26.9 26.6 C 26.6 27.1 26 27.3 25.6 26.9 C 22.1 24.8 17.6 24.3 12.4 25.5 C 11.9 25.6 11.4 25.3 11.3 24.9 C 11.1 24.4 11.5 23.9 11.9 23.8 C 17.6 22.5 22.5 23 26.4 25.4 C 27 25.6 27.1 26.3 26.9 26.6 Z M 28.8 22.5 C 28.4 23 27.8 23.3 27.1 22.9 C 23.1 20.4 16.9 19.6 12.3 21.1 C 11.6 21.3 11 21 10.9 20.4 C 10.8 19.8 11 19.1 11.6 19 C 17.1 17.4 23.9 18.1 28.5 21 C 28.9 21.3 29.1 22 28.8 22.5 Z M 28.9 18.4 C 24 15.5 16 15.3 11.5 16.6 C 10.8 16.9 10 16.4 9.8 15.8 C 9.5 15 10 14.3 10.6 14 C 16 12.4 24.8 12.8 30.3 16 C 30.9 16.4 31.1 17.3 30.8 18 C 30.4 18.5 29.5 18.8 28.9 18.4 Z" fill="currentColor"></path></svg>