<svg width="24" height="24" viewBox="0 0 40 40" fill="none" xmlns="http://www.w3.org/2000/svg" aria-label="TikTok" role="img" data-testid="tiktok-preview-icon"><path fill-rule="evenodd" clip-rule="evenodd" d="M26.1205 15.2246C28.0599 16.6098 30.435 17.4249 33.0001 17.4249V13.541C31.5683 13.2363 30.3007 12.4883 29.3475 11.448C27.7162 10.4305 26.5407 8.7519 26.1962 6.78716H22.5999V26.4946C22.5918 28.7921 20.7262 30.6523 18.4258 30.6523C17.0701 30.6523 15.8658 30.0066 15.1031 29.0061C13.741 28.3191 12.807 26.9085 12.807 25.2795C12.807 22.9755 14.6756 21.1076 16.981 21.1076C17.4227 21.1076 17.8484 21.1764 18.2477 21.303V17.3767C13.2969 17.479 9.31514 21.5222 9.31514 26.4948C9.31514 28.9771 10.3067 31.2274 11.9159 32.8715C13.3678 33.8459 15.1155 34.414 16.9957 34.414C22.0351 34.414 26.1205 30.3308 26.1205 25.2938V15.2246Z" fill="currentColor"></path><path fill-rule="evenodd" clip-rule="evenodd" d="M32.9992 13.541V12.4907C31.7079 12.4927 30.4421 12.1313 29.3466 11.4478C30.3163 12.5089 31.5933 13.2407 32.9992 13.541ZM26.1952 6.78714C26.1623 6.59939 26.1371 6.41037 26.1196 6.22057V5.58597H21.154V25.2936C21.1461 27.5909 19.2807 29.4511 16.9801 29.4511C16.3045 29.4511 15.6669 29.291 15.1021 29.0061C15.8648 30.0065 17.0692 30.6523 18.4248 30.6523C20.7251 30.6523 22.5908 28.7921 22.599 26.4946V6.78714H26.1952ZM18.2477 17.3767L18.247 16.2586C17.832 16.2019 17.4137 16.1736 16.9949 16.1738C11.955 16.1738 7.86963 20.2571 7.86963 25.2936C7.86963 28.4514 9.47601 31.2345 11.9159 32.8715C10.3067 31.2274 9.31514 28.9771 9.31514 26.4948C9.31514 21.5222 13.2969 17.479 18.2477 17.3767Z" fill="currentColor"></path></svg>